<svg width="80" height="16" viewBox="0 0 80 16" fill="none" xmlns="http://www.w3.org/2000/svg">
<path fill-rule="evenodd" clip-rule="evenodd" d="M0 0.138184H10.5231V2.90363H0V0.138184ZM0 15.8617V7.19353H9.8252V9.9636H3.35881V15.8617H0Z" fill="#2490EF"/>
<path d="M22.7481 4.4879H25.4616C25.4084 1.86047 23.1662 0 19.8523 0C16.5839 0 14.1289 1.83769 14.1365 4.58661C14.1365 6.8192 15.7251 8.10253 18.2865 8.7632L20.0575 9.2188C21.7373 9.64407 22.8469 10.168 22.8545 11.3754C22.8469 12.7043 21.5852 13.5928 19.7459 13.5928C17.9825 13.5928 16.6143 12.8031 16.5003 11.1704H13.7261C13.8401 14.2611 16.1431 16 19.7687 16C23.5006 16 25.6668 14.1395 25.6744 11.3982C25.6668 8.7024 23.4398 7.47227 21.0988 6.91787L19.6394 6.55339C18.3625 6.24965 16.9791 5.71049 16.9944 4.41196C17.002 3.24253 18.0509 2.38443 19.8143 2.38443C21.494 2.38443 22.6037 3.16659 22.7481 4.4879Z" fill="#192734"/>
<path d="M32.624 15.9924C35.5578 15.9924 37.4276 14.2535 37.6252 11.7779H34.9954C34.7598 13.0309 33.8552 13.7523 32.6468 13.7523C30.929 13.7523 29.8193 12.3171 29.8193 9.93259C29.8193 7.57852 30.9518 6.1661 32.6468 6.1661C33.9693 6.1661 34.7826 7.01659 34.9954 8.14046H37.6252C37.4352 5.61176 35.459 3.94873 32.6088 3.94873C29.1884 3.94873 27.0298 6.4167 27.0298 9.97819C27.0298 13.5093 29.1352 15.9924 32.624 15.9924Z" fill="#192734"/>
<path d="M42.1011 8.92998C42.1011 7.24418 43.15 6.2722 44.6245 6.2722C46.0687 6.2722 46.92 7.19104 46.92 8.76298V15.7644H49.6715V8.33771C49.6715 5.52042 48.0753 3.94852 45.6507 3.94852C43.8569 3.94852 42.7167 4.76105 42.1771 6.08236H42.0403V0.212402H39.3496V15.7644H42.1011V8.92998Z" fill="#192734"/>
<path d="M57.0336 15.9924C60.4539 15.9924 62.6277 13.5852 62.6277 9.97819C62.6277 6.36354 60.4539 3.94873 57.0336 3.94873C53.6133 3.94873 51.4395 6.36354 51.4395 9.97819C51.4395 13.5852 53.6133 15.9924 57.0336 15.9924ZM57.0488 13.7902C55.1562 13.7902 54.2289 12.1044 54.2289 9.97059C54.2289 7.83672 55.1562 6.12814 57.0488 6.12814C58.911 6.12814 59.8383 7.83672 59.8383 9.97059C59.8383 12.1044 58.911 13.7902 57.0488 13.7902Z" fill="#192734"/>
<path d="M69.5207 15.9924C72.9407 15.9924 75.1147 13.5852 75.1147 9.97819C75.1147 6.36354 72.9407 3.94873 69.5207 3.94873C66.1001 3.94873 63.9263 6.36354 63.9263 9.97819C63.9263 13.5852 66.1001 15.9924 69.5207 15.9924ZM69.5354 13.7902C67.6427 13.7902 66.7161 12.1044 66.7161 9.97059C66.7161 7.83672 67.6427 6.12814 69.5354 6.12814C71.3981 6.12814 72.3254 7.83672 72.3254 9.97059C72.3254 12.1044 71.3981 13.7902 69.5354 13.7902Z" fill="#192734"/>
<path d="M79.6659 0.212402H76.9146V15.7644H79.6659V0.212402Z" fill="#192734"/>
</svg>
